<?xml version="1.0" encoding="iso-8859-1"?>
<!-- Generator: Adobe Illustrator 16.0.4, SVG Export Plug-In . SVG Version: 6.00 Build 0)  -->
<!DOCTYPE svg PUBLIC "-//W3C//DTD SVG 1.1//EN" "http://www.w3.org/Graphics/SVG/1.1/DTD/svg11.dtd">
<svg version="1.1" id="Layer_1" xmlns="http://www.w3.org/2000/svg" xmlns:xlink="http://www.w3.org/1999/xlink" x="0px" y="0px"
	 width="22px" height="28px" viewBox="0 0 22 28" style="enable-background:new 0 0 22 28;" xml:space="preserve">
<path d="M20,2V0h-2v2h-2V0h-2v2h-2V0h-2v2H8V0H6v2H4V0H2v2C0.9,2,0,2.9,0,4v22c0,1.1,0.9,2,2,2h18c1.1,0,2-0.9,2-2V4
	C22,2.9,21.1,2,20,2z M1.999,6.5c0-0.276,0.224-0.5,0.5-0.5h17c0.276,0,0.5,0.224,0.5,0.5S19.775,7,19.499,7h-17
	C2.223,7,1.999,6.776,1.999,6.5z M19.5,23h-17C2.224,23,2,22.776,2,22.5S2.224,22,2.5,22h17c0.276,0,0.5,0.224,0.5,0.5
	S19.776,23,19.5,23z M19.5,19h-17C2.224,19,2,18.776,2,18.5S2.224,18,2.5,18h17c0.276,0,0.5,0.224,0.5,0.5S19.776,19,19.5,19z
	 M19.5,15h-17C2.224,15,2,14.776,2,14.5S2.224,14,2.5,14h17c0.276,0,0.5,0.224,0.5,0.5S19.776,15,19.5,15z M19.5,11h-17
	C2.224,11,2,10.776,2,10.5S2.224,10,2.5,10h17c0.276,0,0.5,0.224,0.5,0.5S19.776,11,19.5,11z"/>
<g>
</g>
<g>
</g>
<g>
</g>
<g>
</g>
<g>
</g>
<g>
</g>
<g>
</g>
<g>
</g>
<g>
</g>
<g>
</g>
<g>
</g>
<g>
</g>
<g>
</g>
<g>
</g>
<g>
</g>
</svg>
